{
	"asset":{
		"generator":"Khronos glTF Blender I/O v5.1.20",
		"version":"2.0"
	},
	"scene":0,
	"scenes":[
		{
			"name":"Scene",
			"nodes":[
				0,
				1,
				2
			]
		}
	],
	"nodes":[
		{
			"mesh":0,
			"name":"blade"
		},
		{
			"mesh":1,
			"name":"handel",
			"scale":[
				0.05016988143324852,
				0.09492760896682739,
				0.02958107925951481
			],
			"translation":[
				0,
				-0.7585412263870239,
				0
			]
		},
		{
			"mesh":2,
			"name":"hilt",
			"scale":[
				0.7848463654518127,
				1,
				0.7406854033470154
			]
		}
	],
	"materials":[
		{
			"doubleSided":true,
			"name":"steel",
			"pbrMetallicRoughness":{
				"baseColorFactor":[
					0.30541086196899414,
					0.30541086196899414,
					0.30541086196899414,
					1
				],
				"metallicFactor":0.8307692408561707,
				"roughnessFactor":0.5
			}
		},
		{
			"doubleSided":true,
			"name":"leatehr",
			"pbrMetallicRoughness":{
				"baseColorFactor":[
					0.017225155606865883,
					0.0028068542014807463,
					0.0021550420206040144,
					1
				],
				"metallicFactor":0,
				"roughnessFactor":0.7692307829856873
			}
		},
		{
			"doubleSided":true,
			"name":"hilt",
			"pbrMetallicRoughness":{
				"baseColorFactor":[
					0.4076300859451294,
					0.20534300804138184,
					0.05057647079229355,
					1
				],
				"metallicFactor":0.8307692408561707,
				"roughnessFactor":0.5
			}
		}
	],
	"meshes":[
		{
			"name":"Cube.001",
			"primitives":[
				{
					"attributes":{
						"POSITION":0,
						"NORMAL":1,
						"TEXCOORD_0":2
					},
					"indices":3,
					"material":0
				}
			]
		},
		{
			"name":"Cylinder",
			"primitives":[
				{
					"attributes":{
						"POSITION":4,
						"NORMAL":5,
						"TEXCOORD_0":6
					},
					"indices":7,
					"material":1
				}
			]
		},
		{
			"name":"Cube.002",
			"primitives":[
				{
					"attributes":{
						"POSITION":8,
						"NORMAL":9,
						"TEXCOORD_0":10,
						"TANGENT":11
					},
					"indices":12,
					"material":2
				}
			]
		}
	],
	"accessors":[
		{
			"bufferView":0,
			"componentType":5126,
			"count":128,
			"max":[
				0.09721313416957855,
				1.3532371520996094,
				0.051229316741228104
			],
			"min":[
				-0.09721313416957855,
				-0.6467629671096802,
				-0.051229316741228104
			],
			"type":"VEC3"
		},
		{
			"bufferView":1,
			"componentType":5126,
			"count":128,
			"type":"VEC3"
		},
		{
			"bufferView":2,
			"componentType":5126,
			"count":128,
			"type":"VEC2"
		},
		{
			"bufferView":3,
			"componentType":5123,
			"count":234,
			"type":"SCALAR"
		},
		{
			"bufferView":4,
			"componentType":5126,
			"count":132,
			"max":[
				0.9898214340209961,
				1,
				1
			],
			"min":[
				-0.9898214340209961,
				-1.7768876552581787,
				-1
			],
			"type":"VEC3"
		},
		{
			"bufferView":5,
			"componentType":5126,
			"count":132,
			"type":"VEC3"
		},
		{
			"bufferView":6,
			"componentType":5126,
			"count":132,
			"type":"VEC2"
		},
		{
			"bufferView":7,
			"componentType":5123,
			"count":252,
			"type":"SCALAR"
		},
		{
			"bufferView":8,
			"componentType":5126,
			"count":55,
			"max":[
				0.18254230916500092,
				-0.6423776149749756,
				0.0961960181593895
			],
			"min":[
				-0.18254230916500092,
				-0.6802012920379639,
				-0.0961960181593895
			],
			"type":"VEC3"
		},
		{
			"bufferView":9,
			"componentType":5126,
			"count":55,
			"type":"VEC3"
		},
		{
			"bufferView":10,
			"componentType":5126,
			"count":55,
			"type":"VEC2"
		},
		{
			"bufferView":11,
			"componentType":5126,
			"count":55,
			"type":"VEC4"
		},
		{
			"bufferView":12,
			"componentType":5123,
			"count":156,
			"type":"SCALAR"
		}
	],
	"bufferViews":[
		{
			"buffer":0,
			"byteLength":1536,
			"byteOffset":0,
			"target":34962
		},
		{
			"buffer":0,
			"byteLength":1536,
			"byteOffset":1536,
			"target":34962
		},
		{
			"buffer":0,
			"byteLength":1024,
			"byteOffset":3072,
			"target":34962
		},
		{
			"buffer":0,
			"byteLength":468,
			"byteOffset":4096,
			"target":34963
		},
		{
			"buffer":0,
			"byteLength":1584,
			"byteOffset":4564,
			"target":34962
		},
		{
			"buffer":0,
			"byteLength":1584,
			"byteOffset":6148,
			"target":34962
		},
		{
			"buffer":0,
			"byteLength":1056,
			"byteOffset":7732,
			"target":34962
		},
		{
			"buffer":0,
			"byteLength":504,
			"byteOffset":8788,
			"target":34963
		},
		{
			"buffer":0,
			"byteLength":660,
			"byteOffset":9292,
			"target":34962
		},
		{
			"buffer":0,
			"byteLength":660,
			"byteOffset":9952,
			"target":34962
		},
		{
			"buffer":0,
			"byteLength":440,
			"byteOffset":10612,
			"target":34962
		},
		{
			"buffer":0,
			"byteLength":880,
			"byteOffset":11052,
			"target":34962
		},
		{
			"buffer":0,
			"byteLength":312,
			"byteOffset":11932,
			"target":34963
		}
	],
	"buffers":[
		{
			"byteLength":12244,
			"uri":"sword-a35a14017899599fd61559471196249f.bin"
		}
	]
}
